<svg width="557" height="148" viewBox="0 0 557 148" fill="none" xmlns="http://www.w3.org/2000/svg">
<path d="M0 30C0 13.4314 13.4315 0 30 0L280.114 0L527 0C543.569 0 557 13.4315 557 30V88.8938C557 94.72 552.815 99.7043 547.077 100.713L280.577 147.545C279.203 147.786 277.797 147.786 276.423 147.545L9.92308 100.713C4.18486 99.7043 0 94.72 0 88.8938V30Z" fill="#2B5991"/>
<path d="M70.3111 50.5H67.1733C66.9396 49.3317 66.5168 48.2524 65.9048 47.2621C65.304 46.2607 64.5473 45.3872 63.6349 44.6417C62.7225 43.8962 61.6877 43.3176 60.5305 42.9059C59.3733 42.4942 58.1216 42.2884 56.7752 42.2884C54.6166 42.2884 52.6471 42.8503 50.8668 43.9741C49.0977 45.0979 47.679 46.7502 46.6108 48.9311C45.5537 51.1009 45.0252 53.7602 45.0252 56.9091C45.0252 60.0803 45.5537 62.7507 46.6108 64.9205C47.679 67.0902 49.0977 68.737 50.8668 69.8608C52.6471 70.9735 54.6166 71.5298 56.7752 71.5298C58.1216 71.5298 59.3733 71.324 60.5305 70.9123C61.6877 70.5006 62.7225 69.9276 63.6349 69.1932C64.5473 68.4477 65.304 67.5742 65.9048 66.5728C66.5168 65.5714 66.9396 64.4865 67.1733 63.3182H70.3111C70.0329 64.8871 69.5099 66.3503 68.7422 67.7077C67.9856 69.0541 67.0175 70.2335 65.8381 71.2461C64.6697 72.2586 63.3234 73.0487 61.799 73.6161C60.2746 74.1836 58.6 74.4673 56.7752 74.4673C53.9045 74.4673 51.3564 73.7496 49.131 72.3143C46.9057 70.8678 45.1587 68.8316 43.8903 66.2056C42.6329 63.5797 42.0043 60.4808 42.0043 56.9091C42.0043 53.3374 42.6329 50.2385 43.8903 47.6126C45.1587 44.9866 46.9057 42.956 49.131 41.5206C51.3564 40.0741 53.9045 39.3509 56.7752 39.3509C58.6 39.3509 60.2746 39.6346 61.799 40.2021C63.3234 40.7584 64.6697 41.5484 65.8381 42.5721C67.0175 43.5846 67.9856 44.7641 68.7422 46.1104C69.5099 47.4568 70.0329 48.92 70.3111 50.5ZM87.6398 82.2951V71.196H89.8096C90.5996 70.3726 91.3284 69.2878 91.996 67.9414C92.6636 66.5839 93.22 64.837 93.665 62.7006C94.1212 60.5531 94.4161 57.8716 94.5496 54.6559L95.2339 39.8182H114.778V71.196H118.784V82.2116H115.813V74H90.6107V82.2951H87.6398ZM93.5482 71.196H111.807V42.6222H98.0713L97.5372 54.6559C97.4148 57.2707 97.1867 59.6018 96.8529 61.6491C96.5191 63.6854 96.074 65.4935 95.5177 67.0735C94.9724 68.6424 94.316 70.0166 93.5482 71.196ZM125.514 74V39.8182H128.635V55.4904H148.03V39.8182H151.151V74H148.03V58.2944H128.635V74H125.514ZM160.214 74V39.8182H180.042V42.6222H163.335V55.4904H178.99V58.2944H163.335V71.196H180.376V74H160.214ZM165.872 35.4119C165.304 35.4119 164.803 35.2005 164.369 34.7777C163.947 34.3437 163.735 33.843 163.735 33.2756C163.735 32.6636 163.947 32.1573 164.369 31.7567C164.803 31.3451 165.304 31.1392 165.872 31.1392C166.484 31.1392 166.99 31.3451 167.39 31.7567C167.802 32.1573 168.008 32.6636 168.008 33.2756C168.008 33.843 167.802 34.3437 167.39 34.7777C166.99 35.2005 166.484 35.4119 165.872 35.4119ZM174.417 35.4119C173.85 35.4119 173.349 35.2005 172.915 34.7777C172.492 34.3437 172.281 33.843 172.281 33.2756C172.281 32.6636 172.492 32.1573 172.915 31.7567C173.349 31.3451 173.85 31.1392 174.417 31.1392C175.029 31.1392 175.535 31.3451 175.936 31.7567C176.348 32.1573 176.553 32.6636 176.553 33.2756C176.553 33.843 176.348 34.3437 175.936 34.7777C175.535 35.2005 175.029 35.4119 174.417 35.4119ZM188.12 39.8182H191.725L204.126 69.5938H204.426L216.827 39.8182H220.432V74H217.495V46.4109H217.228L205.695 74H202.857L191.324 46.4109H191.057V74H188.12V39.8182ZM242.739 74V39.8182H253.771C256.197 39.8182 258.222 40.2855 259.847 41.2202C261.482 42.1437 262.712 43.401 263.535 44.9922C264.37 46.5833 264.787 48.3748 264.787 50.3665C264.787 52.3582 264.375 54.1552 263.552 55.7575C262.728 57.3486 261.504 58.6115 259.88 59.5462C258.255 60.4697 256.236 60.9315 253.821 60.9315H245.142V58.1275H253.738C255.529 58.1275 257.015 57.7937 258.194 57.1261C259.374 56.4473 260.253 55.5238 260.831 54.3555C261.421 53.1871 261.716 51.8575 261.716 50.3665C261.716 48.8755 261.421 47.5458 260.831 46.3775C260.253 45.2092 259.368 44.2912 258.178 43.6236C256.998 42.956 255.502 42.6222 253.688 42.6222H245.86V74H242.739ZM300.137 56.9091C300.137 60.4697 299.503 63.5685 298.234 66.2056C296.966 68.8316 295.219 70.8678 292.994 72.3143C290.779 73.7496 288.231 74.4673 285.349 74.4673C282.468 74.4673 279.914 73.7496 277.689 72.3143C275.474 70.8678 273.733 68.8316 272.464 66.2056C271.207 63.5685 270.578 60.4697 270.578 56.9091C270.578 53.3485 271.207 50.2552 272.464 47.6293C273.733 44.9922 275.48 42.956 277.705 41.5206C279.931 40.0741 282.479 39.3509 285.349 39.3509C288.231 39.3509 290.779 40.0741 292.994 41.5206C295.219 42.956 296.966 44.9922 298.234 47.6293C299.503 50.2552 300.137 53.3485 300.137 56.9091ZM297.099 56.9091C297.099 53.8492 296.588 51.2288 295.564 49.0479C294.54 46.8559 293.144 45.1813 291.375 44.0241C289.605 42.8669 287.597 42.2884 285.349 42.2884C283.113 42.2884 281.11 42.8669 279.341 44.0241C277.572 45.1813 276.17 46.8504 275.135 49.0312C274.111 51.2121 273.599 53.8381 273.599 56.9091C273.599 59.969 274.111 62.5894 275.135 64.7702C276.159 66.9511 277.555 68.6257 279.324 69.794C281.093 70.9512 283.102 71.5298 285.349 71.5298C287.597 71.5298 289.605 70.9512 291.375 69.794C293.155 68.6368 294.557 66.9678 295.581 64.7869C296.604 62.5949 297.111 59.969 297.099 56.9091ZM325.577 39.8182V74H322.456V39.8182H325.577ZM303.63 74L315.313 56.2749L304.965 39.8182H308.737L318.117 55.3068H329.967L339.347 39.8182H343.119L332.737 56.3249L344.404 74H340.816L330.468 58.2276H317.583L307.185 74H303.63ZM346.553 82.2951V71.196H348.723C349.513 70.3726 350.241 69.2878 350.909 67.9414C351.577 66.5839 352.133 64.837 352.578 62.7006C353.034 60.5531 353.329 57.8716 353.463 54.6559L354.147 39.8182H373.691V71.196H377.697V82.2116H374.726V74H349.524V82.2951H346.553ZM352.461 71.196H370.721V42.6222H356.984L356.45 54.6559C356.328 57.2707 356.1 59.6018 355.766 61.6491C355.432 63.6854 354.987 65.4935 354.431 67.0735C353.886 68.6424 353.229 70.0166 352.461 71.196ZM384.427 74V39.8182H404.256V42.6222H387.549V55.4904H403.204V58.2944H387.549V71.196H404.589V74H384.427ZM412.334 74V39.8182H415.455V55.4904H434.849V39.8182H437.97V74H434.849V58.2944H415.455V74H412.334ZM447.033 39.8182H450.104V68.4755H450.371L470.616 39.8182H473.654V74H470.533V45.3761H470.266L450.054 74H447.033V39.8182ZM504.773 74H501.652V42.6222H493.824C492.022 42.6222 490.525 42.9281 489.335 43.5401C488.155 44.1521 487.271 45.02 486.681 46.1438C486.091 47.2565 485.796 48.5584 485.796 50.0494C485.796 51.5404 486.086 52.8311 486.664 53.9215C487.254 55.012 488.138 55.852 489.318 56.4418C490.508 57.0315 491.994 57.3263 493.774 57.3263H503.087V60.1804H493.691C491.287 60.1804 489.273 59.752 487.649 58.8952C486.024 58.0385 484.795 56.8479 483.96 55.3235C483.137 53.7991 482.725 52.0411 482.725 50.0494C482.725 48.0576 483.137 46.294 483.96 44.7585C484.795 43.2119 486.024 42.0046 487.649 41.1367C489.285 40.2577 491.315 39.8182 493.741 39.8182H504.773V74ZM489.702 58.5781H493.223L484.895 74H481.29L489.702 58.5781Z" fill="white"/>
</svg>
