<svg width="557" height="175" viewBox="0 0 557 175" fill="none" xmlns="http://www.w3.org/2000/svg">
<path d="M0 30C0 13.4314 13.4315 0 30 0L280.114 0L527 0C543.569 0 557 13.4315 557 30V107.272C557 112.959 553.009 117.864 547.442 119.021L280.942 174.402C279.331 174.737 277.669 174.737 276.058 174.402L9.55845 119.021C3.99102 117.864 0 112.959 0 107.272V30Z" fill="#2B5991"/>
<path d="M99.3185 95.2951V84.196H101.488C102.278 83.3726 103.007 82.2878 103.675 80.9414C104.342 79.5839 104.899 77.837 105.344 75.7006C105.8 73.5531 106.095 70.8716 106.228 67.6559L106.913 52.8182H126.457V84.196H130.463V95.2116H127.492V87H102.289V95.2951H99.3185ZM105.227 84.196H123.486V55.6222H109.75L109.216 67.6559C109.094 70.2707 108.865 72.6018 108.532 74.6491C108.198 76.6854 107.753 78.4935 107.196 80.0735C106.651 81.6424 105.995 83.0166 105.227 84.196ZM146.94 87.5341C144.548 87.5341 142.478 86.9777 140.731 85.8651C138.985 84.7412 137.633 83.189 136.676 81.2085C135.73 79.2167 135.257 76.9246 135.257 74.332C135.257 71.7506 135.73 69.4585 136.676 67.4556C137.633 65.4416 138.951 63.8672 140.631 62.7322C142.323 61.5862 144.275 61.0131 146.49 61.0131C147.88 61.0131 149.221 61.2691 150.512 61.7809C151.803 62.2816 152.96 63.0549 153.984 64.1009C155.018 65.1357 155.836 66.4431 156.437 68.0231C157.038 69.592 157.338 71.4502 157.338 73.5977V75.0664H137.31V72.446H154.301C154.301 70.7992 153.967 69.3194 153.299 68.0064C152.643 66.6823 151.725 65.6364 150.545 64.8686C149.377 64.1009 148.025 63.717 146.49 63.717C144.865 63.717 143.435 64.1509 142.2 65.0188C140.965 65.8867 139.997 67.0328 139.296 68.457C138.606 69.8813 138.256 71.439 138.245 73.1303V74.6992C138.245 76.7354 138.595 78.5157 139.296 80.0401C140.008 81.5534 141.015 82.7273 142.317 83.5618C143.619 84.3963 145.16 84.8136 146.94 84.8136C148.153 84.8136 149.216 84.6244 150.128 84.2461C151.052 83.8678 151.825 83.3615 152.448 82.7273C153.082 82.0819 153.561 81.3754 153.883 80.6076L156.704 81.5256C156.315 82.6049 155.675 83.6007 154.785 84.5131C153.906 85.4255 152.804 86.1599 151.48 86.7163C150.167 87.2615 148.654 87.5341 146.94 87.5341ZM181.193 72.7965V75.6005H166.122V72.7965H181.193ZM166.856 61.3636V87H163.885V61.3636H166.856ZM183.379 61.3636V87H180.409V61.3636H183.379ZM193.757 71.261H201.251C204.132 71.261 206.358 71.962 207.927 73.364C209.496 74.766 210.28 76.6631 210.28 79.0554C210.28 80.6465 209.93 82.0374 209.229 83.228C208.528 84.4186 207.504 85.3477 206.158 86.0153C204.811 86.6718 203.176 87 201.251 87H191.286V61.3636H194.257V84.196H201.251C203.064 84.196 204.527 83.7621 205.64 82.8942C206.753 82.0263 207.309 80.7912 207.309 79.1889C207.309 77.5533 206.753 76.2904 205.64 75.4002C204.527 74.5101 203.064 74.065 201.251 74.065H193.757V71.261ZM230.025 96.6136V61.3636H232.912V66.2539H233.263C233.619 65.4862 234.108 64.7017 234.731 63.9006C235.355 63.0883 236.178 62.404 237.202 61.8477C238.236 61.2913 239.538 61.0131 241.107 61.0131C243.221 61.0131 245.068 61.5695 246.648 62.6822C248.239 63.7837 249.475 65.3304 250.354 67.3221C251.244 69.3027 251.689 71.6115 251.689 74.2486C251.689 76.8968 251.244 79.2167 250.354 81.2085C249.475 83.2002 248.239 84.7524 246.648 85.8651C245.068 86.9777 243.232 87.5341 241.141 87.5341C239.594 87.5341 238.298 87.2559 237.252 86.6996C236.217 86.1432 235.377 85.4589 234.731 84.6467C234.097 83.8233 233.608 83.0221 233.263 82.2433H232.996V96.6136H230.025ZM232.962 74.1985C232.962 76.2681 233.268 78.104 233.88 79.7063C234.503 81.2975 235.393 82.5492 236.551 83.4616C237.719 84.3629 239.132 84.8136 240.79 84.8136C242.492 84.8136 243.928 84.3462 245.096 83.4116C246.276 82.4658 247.171 81.1918 247.783 79.5895C248.406 77.9872 248.718 76.1902 248.718 74.1985C248.718 72.229 248.412 70.4543 247.8 68.8743C247.199 67.2943 246.309 66.0425 245.13 65.119C243.95 64.1843 242.504 63.717 240.79 63.717C239.121 63.717 237.702 64.1676 236.534 65.0689C235.366 65.959 234.476 67.1941 233.864 68.7741C233.263 70.343 232.962 72.1512 232.962 74.1985ZM268.171 87.5341C265.956 87.5341 263.998 86.9722 262.296 85.8484C260.604 84.7246 259.28 83.1723 258.323 81.1918C257.366 79.2 256.888 76.9023 256.888 74.2986C256.888 71.6727 257.366 69.3639 258.323 67.3722C259.28 65.3693 260.604 63.8116 262.296 62.6989C263.998 61.575 265.956 61.0131 268.171 61.0131C270.385 61.0131 272.338 61.575 274.029 62.6989C275.72 63.8227 277.044 65.3804 278.001 67.3722C278.969 69.3639 279.453 71.6727 279.453 74.2986C279.453 76.9023 278.975 79.2 278.018 81.1918C277.061 83.1723 275.731 84.7246 274.029 85.8484C272.338 86.9722 270.385 87.5341 268.171 87.5341ZM268.171 84.8136C269.951 84.8136 271.459 84.3351 272.694 83.3782C273.929 82.4213 274.863 81.1473 275.498 79.5561C276.143 77.965 276.466 76.2125 276.466 74.2986C276.466 72.3848 276.143 70.6268 275.498 69.0245C274.863 67.4222 273.929 66.1371 272.694 65.169C271.459 64.201 269.951 63.717 268.171 63.717C266.401 63.717 264.894 64.201 263.647 65.169C262.412 66.1371 261.472 67.4222 260.827 69.0245C260.193 70.6268 259.875 72.3848 259.875 74.2986C259.875 76.2125 260.193 77.965 260.827 79.5561C261.472 81.1473 262.412 82.4213 263.647 83.3782C264.883 84.3351 266.39 84.8136 268.171 84.8136ZM283.317 87L294.633 74.0483L283.467 61.3636H287.089L296.92 72.7631H298.639V61.3636H301.626V72.7631H303.312L313.143 61.3636H316.764L305.632 74.0483L316.915 87H313.243L303.262 75.5671H301.626V87H298.639V75.5671H297.003L286.989 87H283.317ZM320.115 94.2937V84.196H322.335C322.891 83.5729 323.375 82.8997 323.787 82.1765C324.199 81.4532 324.555 80.6299 324.855 79.7063C325.167 78.7717 325.428 77.6868 325.64 76.4517C325.851 75.2055 326.029 73.7534 326.174 72.0955L327.108 61.3636H342.28V84.196H346.085V94.2937H343.114V87H323.103V94.2937H320.115ZM325.756 84.196H339.309V64.1676H329.879L329.111 72.0955C328.844 74.7882 328.466 77.136 327.976 79.1388C327.487 81.1417 326.747 82.8274 325.756 84.196ZM362.112 87.5341C359.72 87.5341 357.65 86.9777 355.903 85.8651C354.156 84.7412 352.804 83.189 351.848 81.2085C350.902 79.2167 350.429 76.9246 350.429 74.332C350.429 71.7506 350.902 69.4585 351.848 67.4556C352.804 65.4416 354.123 63.8672 355.803 62.7322C357.494 61.5862 359.447 61.0131 361.661 61.0131C363.052 61.0131 364.393 61.2691 365.684 61.7809C366.975 62.2816 368.132 63.0549 369.155 64.1009C370.19 65.1357 371.008 66.4431 371.609 68.0231C372.21 69.592 372.51 71.4502 372.51 73.5977V75.0664H352.482V72.446H369.473C369.473 70.7992 369.139 69.3194 368.471 68.0064C367.815 66.6823 366.897 65.6364 365.717 64.8686C364.549 64.1009 363.197 63.717 361.661 63.717C360.037 63.717 358.607 64.1509 357.372 65.0188C356.137 65.8867 355.169 67.0328 354.468 68.457C353.778 69.8813 353.428 71.439 353.416 73.1303V74.6992C353.416 76.7354 353.767 78.5157 354.468 80.0401C355.18 81.5534 356.187 82.7273 357.489 83.5618C358.791 84.3963 360.332 84.8136 362.112 84.8136C363.325 84.8136 364.388 84.6244 365.3 84.2461C366.224 83.8678 366.997 83.3615 367.62 82.7273C368.254 82.0819 368.733 81.3754 369.055 80.6076L371.876 81.5256C371.487 82.6049 370.847 83.6007 369.957 84.5131C369.078 85.4255 367.976 86.1599 366.652 86.7163C365.339 87.2615 363.826 87.5341 362.112 87.5341ZM396.365 72.7965V75.6005H381.294V72.7965H396.365ZM382.028 61.3636V87H379.057V61.3636H382.028ZM398.551 61.3636V87H395.58V61.3636H398.551ZM409.429 82.7773L422.965 61.3636H426.52V87H423.549V65.5863L410.063 87H406.458V61.3636H409.429V82.7773ZM449.786 87V64.1175H442.726C440.891 64.1287 439.494 64.5125 438.537 65.2692C437.591 66.0258 437.119 67.1552 437.119 68.6573C437.119 70.1594 437.569 71.2888 438.47 72.0455C439.372 72.791 440.685 73.1637 442.409 73.1637H450.621V75.9677H442.409C440.64 75.9677 439.138 75.6839 437.903 75.1165C436.679 74.549 435.744 73.7201 435.099 72.6296C434.454 71.5392 434.131 70.2151 434.131 68.6573C434.131 67.0884 434.459 65.7643 435.116 64.685C435.783 63.5946 436.757 62.7712 438.036 62.2148C439.327 61.6474 440.891 61.3636 442.726 61.3636H452.624V87H449.786ZM432.512 87L439.889 74.2486H443.144L435.767 87H432.512Z" fill="white"/>
</svg>
